<svg xmlns="http://www.w3.org/2000/svg" viewBox="0 0 73.71 73.71"><defs><style>.cls-1{fill:#231f20;}</style></defs><title>Asset 1</title><g id="Layer_2" data-name="Layer 2"><g id="site"><path class="cls-1" d="M36.86,0A36.86,36.86,0,1,0,73.71,36.86,36.86,36.86,0,0,0,36.86,0Zm20,52.54L52.38,57a1.72,1.72,0,0,1-2.75,0L31.85,39.25a11.62,11.62,0,0,1-7,.6,12.64,12.64,0,0,1-6.46-3.53,12.89,12.89,0,0,1-3.67-7,11.33,11.33,0,0,1,1.1-7.52l8.62,8.43,5.87-5.87L21.86,16a12.56,12.56,0,0,1,7.52-1,12.4,12.4,0,0,1,7,3.58A12.65,12.65,0,0,1,39.87,25a11.64,11.64,0,0,1-.6,7L57.06,49.79a1.23,1.23,0,0,1,.6,1.24A2.11,2.11,0,0,1,56.87,52.54Z"/></g></g></svg>