<svg xmlns="http://www.w3.org/2000/svg" viewBox="0 0 74 74"><defs><style>.cls-1{fill:#231f20;}</style></defs><title>Asset 3</title><g id="Layer_2" data-name="Layer 2"><g id="site"><path class="cls-1" d="M38,28.13v20.4a18.21,18.21,0,0,1,9.74-2.66,21.27,21.27,0,0,1,6.25.92V26.3a21.56,21.56,0,0,0-6.25-.83A18.21,18.21,0,0,0,38,28.13Z"/><path class="cls-1" d="M37,0A37,37,0,1,0,74,37,37,37,0,0,0,37,0ZM57.57,50.45a1,1,0,0,1-.92.92.92.92,0,0,1-.42-.08,17.82,17.82,0,0,0-8.49-1.83A18.21,18.21,0,0,0,38,52.11q-3.58-2.66-9.74-2.66a19.41,19.41,0,0,0-8.49,1.92.7.7,0,0,0-.21,0,.66.66,0,0,1-.21,0,.94.94,0,0,1-.62-.25.75.75,0,0,1-.29-.58V24.55q3.58-2.66,9.83-2.66T38,24.55q3.58-2.66,9.74-2.66,6.33,0,9.83,2.66Z"/></g></g></svg>