<svg xmlns="http://www.w3.org/2000/svg" viewBox="0 0 31.8 37.66"><defs><style>.cls-1{fill:#fff;}</style></defs><title>Asset 1</title><g id="Layer_2" data-name="Layer 2"><g id="site"><path class="cls-1" d="M0,27.71V7.91Q0,3.16,4.09,1.58T15.9,0q7.72,0,11.81,1.58T31.8,7.91V27.71a5.83,5.83,0,0,1-2,4.46v3.53a1.91,1.91,0,0,1-2,2h-2a2.05,2.05,0,0,1-1.44-.56,1.82,1.82,0,0,1-.6-1.39v-2H8v2a1.82,1.82,0,0,1-.6,1.39A2.05,2.05,0,0,1,6,37.66H4a1.91,1.91,0,0,1-2-2V32.18A5.82,5.82,0,0,1,0,27.71Zm27.81-9.86v-10H4v10Zm-23,11A2.81,2.81,0,0,0,7,29.76a2.81,2.81,0,0,0,2.14-.88,3,3,0,0,0,0-4.18A2.82,2.82,0,0,0,7,23.81a2.82,2.82,0,0,0-2.14.88,3,3,0,0,0,0,4.18Zm17.86,0a3,3,0,0,0,4.28,0,3,3,0,0,0,0-4.18,3,3,0,0,0-4.28,0,3,3,0,0,0,0,4.18Z"/></g></g></svg>