<svg xmlns="http://www.w3.org/2000/svg" viewBox="0 0 35.71 31.8"><defs><style>.cls-1{fill:#fff;}</style></defs><title>Asset 4</title><g id="Layer_2" data-name="Layer 2"><g id="site"><path class="cls-1" d="M31.62,2l4.09,11.9V29.76a2.05,2.05,0,0,1-.56,1.44,1.82,1.82,0,0,1-1.39.6h-2a1.82,1.82,0,0,1-1.39-.6,2.05,2.05,0,0,1-.56-1.44v-2H6v2a2.05,2.05,0,0,1-.56,1.44,1.82,1.82,0,0,1-1.4.6H2a1.82,1.82,0,0,1-1.39-.6A2.05,2.05,0,0,1,0,29.76V13.95L4.09,2A2.74,2.74,0,0,1,7,0H28.74A2.74,2.74,0,0,1,31.62,2ZM4,11.9H31.71L28.74,3H7ZM4.88,21A2.94,2.94,0,0,0,7,21.85,2.94,2.94,0,0,0,9.07,21a3,3,0,0,0,0-4.28A2.94,2.94,0,0,0,7,15.9a2.94,2.94,0,0,0-2.09.84,3,3,0,0,0,0,4.28Zm21.76,0a3,3,0,0,0,4.18,0,3,3,0,0,0,0-4.28,3,3,0,0,0-4.18,0,3,3,0,0,0,0,4.28Z"/></g></g></svg>