<svg xmlns="http://www.w3.org/2000/svg" viewBox="0 0 33.11 35.43"><defs><style>.cls-1{fill:#fff;}</style></defs><title>Asset 7</title><g id="Layer_2" data-name="Layer 2"><g id="site"><path class="cls-1" d="M32,22.71a6.78,6.78,0,0,1,1.13,4.12,8.38,8.38,0,0,1-1.2,4.5,7.82,7.82,0,0,1-3.68,3A15.7,15.7,0,0,1,22,35.43,25.35,25.35,0,0,1,17,35q-2.14-.43-4.65-1.18-1.42-.42-2.19-.59A6.64,6.64,0,0,0,8.7,33a7.84,7.84,0,0,1-2.24,1.63,6,6,0,0,1-2.73.75,4.5,4.5,0,0,1-2.59-.77A2.68,2.68,0,0,1,0,32.28a3.34,3.34,0,0,1,.91-2.33,5.93,5.93,0,0,1,2.32-1.53,8.24,8.24,0,0,1,3-.54,3.75,3.75,0,0,0,.63-2.08A31.5,31.5,0,0,0,7,22.29V19H2.93v-4.7H7v-3A11.23,11.23,0,0,1,8.53,5.44a10.34,10.34,0,0,1,4.52-4A16.43,16.43,0,0,1,20.25,0a16.25,16.25,0,0,1,9,2.39l-3.39,6.2a8.62,8.62,0,0,0-2.21-1.22,7.66,7.66,0,0,0-2.88-.56,8,8,0,0,0-2.77.4,3.16,3.16,0,0,0-1.7,1.71,9.26,9.26,0,0,0-.63,3.86v1.55h6.79V19H15.69v2.7q0,5-2.3,7l.78.2.69.17q1.6.41,2.71.62A13.48,13.48,0,0,0,20,29.9,6.46,6.46,0,0,0,23.75,29,2.86,2.86,0,0,0,25,26.53a4.05,4.05,0,0,0-.49-1.94,3.34,3.34,0,0,0-1.07-1.29l6.09-2.88A8.38,8.38,0,0,1,32,22.71Z"/></g></g></svg>