<svg xmlns="http://www.w3.org/2000/svg" viewBox="0 0 35.71 35.71"><defs><style>.cls-1{fill:#fff;}</style></defs><title>Asset 6</title><g id="Layer_2" data-name="Layer 2"><g id="site"><path class="cls-1" d="M31.62,6l4.09,11.9v15.9a1.91,1.91,0,0,1-2,2h-2a1.91,1.91,0,0,1-2-2v-2H6v2a1.91,1.91,0,0,1-2,2H2a1.91,1.91,0,0,1-2-2V17.86L4.09,6A2.64,2.64,0,0,1,7,4H11.9V0h11.9V4h4.93A2.65,2.65,0,0,1,31.62,6ZM4,15.9H31.71L28.74,7H7Zm.88,9a2.92,2.92,0,0,0,4.18,0,2.92,2.92,0,0,0,0-4.19,2.92,2.92,0,0,0-4.18,0,2.92,2.92,0,0,0,0,4.19Zm21.76,0a3,3,0,1,0,4.18-4.19,3,3,0,1,0-4.18,4.19Z"/></g></g></svg>