<svg xmlns="http://www.w3.org/2000/svg" viewBox="0 0 31.8 37.66"><defs><style>.cls-1{fill:#fff;}</style></defs><title>Asset 5</title><g id="Layer_2" data-name="Layer 2"><g id="site"><path class="cls-1" d="M4.09,1.58Q8.18,0,15.9,0T27.71,1.58Q31.8,3.16,31.8,7.91V26.78a6.57,6.57,0,0,1-2,4.88,6.8,6.8,0,0,1-4.93,2l3,3v1H4v-1l3-3a6.79,6.79,0,0,1-4.93-2,6.56,6.56,0,0,1-2-4.88V7.91Q0,3.16,4.09,1.58Zm9.86,16.27v-10H4v10Zm-9.11,11A2.81,2.81,0,0,0,7,29.76a2.81,2.81,0,0,0,2.14-.88,3,3,0,0,0,0-4.18A2.82,2.82,0,0,0,7,23.81a2.82,2.82,0,0,0-2.14.88,3,3,0,0,0,0,4.18Zm23-11v-10h-10v10Zm-5.11,11a3,3,0,0,0,4.28,0,3,3,0,0,0,0-4.18,3,3,0,0,0-4.28,0,3,3,0,0,0,0,4.18Z"/></g></g></svg>